<svg width="33" height="33" viewBox="0 0 33 33" fill="none" xmlns="http://www.w3.org/2000/svg">
<path d="M30.3175 0.0954123L9.69439 6.18594C9.27577 6.31745 8.90999 6.57906 8.65022 6.93273C8.39046 7.2864 8.25026 7.7137 8.25 8.15252V25.0022C7.57463 24.8383 6.88247 24.7535 6.1875 24.7495C2.77148 24.7495 0 26.5969 0 28.8748C0 31.1527 2.77148 33 6.1875 33C9.60352 33 12.375 31.1527 12.375 28.8748V13.8125L28.875 8.97821V20.8776C28.1997 20.7131 27.5075 20.6281 26.8125 20.6243C23.3965 20.6243 20.625 22.4716 20.625 24.7495C20.625 27.0274 23.3965 28.8748 26.8125 28.8748C30.2285 28.8748 33 27.0281 33 24.7495V2.0607C32.9997 1.7369 32.9232 1.41771 32.7766 1.12898C32.63 0.840244 32.4176 0.590075 32.1564 0.398716C31.8952 0.207357 31.5926 0.0801854 31.2731 0.0274931C30.9537 -0.0251992 30.6263 -0.00193181 30.3175 0.0954123Z" fill="#064267"/>
</svg>
