<svg width="19" height="19" viewBox="0 0 19 19" fill="none" xmlns="http://www.w3.org/2000/svg">
<path d="M16.8358 18.7505L10.5358 12.4505C10.0358 12.8505 9.46084 13.1672 8.81084 13.4005C8.16084 13.6338 7.46917 13.7505 6.73584 13.7505C4.91917 13.7505 3.38167 13.1213 2.12334 11.863C0.865007 10.6047 0.23584 9.06715 0.23584 7.25049C0.23584 5.43382 0.865007 3.89632 2.12334 2.63799C3.38167 1.37966 4.91917 0.750488 6.73584 0.750488C8.55251 0.750488 10.09 1.37966 11.3483 2.63799C12.6067 3.89632 13.2358 5.43382 13.2358 7.25049C13.2358 7.98382 13.1192 8.67549 12.8858 9.32549C12.6525 9.97549 12.3358 10.5505 11.9358 11.0505L18.2358 17.3505L16.8358 18.7505ZM6.73584 11.7505C7.98584 11.7505 9.04834 11.313 9.92334 10.438C10.7983 9.56299 11.2358 8.50049 11.2358 7.25049C11.2358 6.00049 10.7983 4.93799 9.92334 4.06299C9.04834 3.18799 7.98584 2.75049 6.73584 2.75049C5.48584 2.75049 4.42334 3.18799 3.54834 4.06299C2.67334 4.93799 2.23584 6.00049 2.23584 7.25049C2.23584 8.50049 2.67334 9.56299 3.54834 10.438C4.42334 11.313 5.48584 11.7505 6.73584 11.7505Z" fill="#45414A"/>
</svg>
