<svg width="33" height="33" viewBox="0 0 33 33" fill="none" xmlns="http://www.w3.org/2000/svg">
<path d="M4.38618 31.6469H27.792C29.6387 31.6469 31.1357 30.1365 31.1357 28.2732V4.65739C31.1357 2.79415 29.6387 1.28369 27.792 1.28369H4.38618C2.5395 1.28369 1.04248 2.79415 1.04248 4.65739V28.2732C1.04248 30.1365 2.5395 31.6469 4.38618 31.6469ZM4.38618 31.6469L22.7765 13.0916L31.1357 21.5259M12.7454 10.5614C12.7454 11.9588 11.6226 13.0916 10.2376 13.0916C8.85264 13.0916 7.72987 11.9588 7.72987 10.5614C7.72987 9.16392 8.85264 8.03108 10.2376 8.03108C11.6226 8.03108 12.7454 9.16392 12.7454 10.5614Z" stroke="#7394FF" stroke-width="2" stroke-linecap="round" stroke-linejoin="round"/>
</svg>
