<svg width="42" height="28" viewBox="0 0 42 28" fill="none" xmlns="http://www.w3.org/2000/svg">
<path d="M39.3949 0.970703H7.07249C6.14914 0.970703 5.40064 1.72592 5.40064 2.65755V3.21983H2.61423C1.69088 3.21983 0.942383 3.97505 0.942383 4.90668V24.0243C0.942383 26.1981 2.68891 27.9603 4.84336 27.9603H37.723C39.5697 27.9603 41.0667 26.4498 41.0667 24.5866V2.65755C41.0667 1.72592 40.3182 0.970703 39.3949 0.970703ZM4.84336 24.5866C4.69556 24.5866 4.55381 24.5273 4.4493 24.4219C4.34479 24.3164 4.28608 24.1734 4.28608 24.0243V6.59353H5.40064V24.0243C5.40064 24.1734 5.34193 24.3164 5.23742 24.4219C5.13291 24.5273 4.99116 24.5866 4.84336 24.5866ZM21.2832 23.462H10.6948C10.2332 23.462 9.8589 23.0844 9.8589 22.6186V22.0563C9.8589 21.5905 10.2332 21.2129 10.6948 21.2129H21.2832C21.7448 21.2129 22.1191 21.5905 22.1191 22.0563V22.6186C22.1191 23.0844 21.7448 23.462 21.2832 23.462ZM35.7725 23.462H25.1842C24.7225 23.462 24.3483 23.0844 24.3483 22.6186V22.0563C24.3483 21.5905 24.7225 21.2129 25.1842 21.2129H35.7725C36.2342 21.2129 36.6085 21.5905 36.6085 22.0563V22.6186C36.6085 23.0844 36.2342 23.462 35.7725 23.462ZM21.2832 16.7146H10.6948C10.2332 16.7146 9.8589 16.337 9.8589 15.8712V15.3089C9.8589 14.8431 10.2332 14.4655 10.6948 14.4655H21.2832C21.7448 14.4655 22.1191 14.8431 22.1191 15.3089V15.8712C22.1191 16.337 21.7448 16.7146 21.2832 16.7146ZM35.7725 16.7146H25.1842C24.7225 16.7146 24.3483 16.337 24.3483 15.8712V15.3089C24.3483 14.8431 24.7225 14.4655 25.1842 14.4655H35.7725C36.2342 14.4655 36.6085 14.8431 36.6085 15.3089V15.8712C36.6085 16.337 36.2342 16.7146 35.7725 16.7146ZM35.7725 9.96722H10.6948C10.2332 9.96722 9.8589 9.58958 9.8589 9.1238V6.31239C9.8589 5.84661 10.2332 5.46896 10.6948 5.46896H35.7725C36.2342 5.46896 36.6085 5.84661 36.6085 6.31239V9.1238C36.6085 9.58958 36.2342 9.96722 35.7725 9.96722Z" fill="#F42D2D"/>
</svg>
